<svg width="21" height="21" viewBox="0 0 21 21" fill="none" xmlns="http://www.w3.org/2000/svg">
<path d="M6.20455 0C2.78369 0 0 2.78369 0 6.20455V14.7955C0 18.2163 2.78369 21 6.20455 21H14.7955C18.2163 21 21 18.2163 21 14.7955V6.20455C21 2.78369 18.2163 0 14.7955 0H6.20455ZM6.20455 0.954545H14.7955C17.7004 0.954545 20.0455 3.29963 20.0455 6.20455V14.7955C20.0455 17.7004 17.7004 20.0455 14.7955 20.0455H6.20455C3.29963 20.0455 0.954545 17.7004 0.954545 14.7955V6.20455C0.954545 3.29963 3.29963 0.954545 6.20455 0.954545ZM16.2273 3.81818C15.9741 3.81818 15.7313 3.91875 15.5523 4.09776C15.3733 4.27677 15.2727 4.51957 15.2727 4.77273C15.2727 5.02589 15.3733 5.26868 15.5523 5.44769C15.7313 5.6267 15.9741 5.72727 16.2273 5.72727C16.4804 5.72727 16.7232 5.6267 16.9022 5.44769C17.0813 5.26868 17.1818 5.02589 17.1818 4.77273C17.1818 4.51957 17.0813 4.27677 16.9022 4.09776C16.7232 3.91875 16.4804 3.81818 16.2273 3.81818ZM10.5 5.25C7.60616 5.25 5.25 7.60616 5.25 10.5C5.25 13.3938 7.60616 15.75 10.5 15.75C13.3938 15.75 15.75 13.3938 15.75 10.5C15.75 7.60616 13.3938 5.25 10.5 5.25ZM10.5 6.20455C12.878 6.20455 14.7955 8.12203 14.7955 10.5C14.7955 12.878 12.878 14.7955 10.5 14.7955C8.12203 14.7955 6.20455 12.878 6.20455 10.5C6.20455 8.12203 8.12203 6.20455 10.5 6.20455Z" fill="black"/>
</svg>
