<svg width="263" height="67" viewBox="0 0 263 67" fill="none" xmlns="http://www.w3.org/2000/svg">
<path d="M71.8885 52.4639C71.2668 50.0538 69.9552 47.9874 67.8775 46.3831C66.1969 45.0856 64.7329 43.6181 63.6058 41.877C61.9694 39.3522 61.2474 36.5909 61.1993 33.678C61.1632 31.5784 61.3838 29.4861 62.1659 27.5085C63.0603 25.2388 64.404 23.2057 66.3213 21.509C67.5486 20.4222 68.8883 19.3945 69.879 18.1414C72.1532 15.2692 72.7228 12.0421 71.7642 8.56733C70.4887 3.93924 66.2491 0.712141 61.4319 0.124388C58.8288 -0.193515 56.2858 0.172446 53.8872 1.36274C51.7133 2.43844 50.0287 4.00577 48.8976 5.82818C45.765 6.51574 39.5159 7.79844 36.1146 7.86498C33.2828 7.92043 27.6073 6.99999 23.5802 6.26807C22.1363 3.60655 19.7658 1.71021 16.4648 0.630818C13.8135 -0.234177 11.1101 -0.182424 8.47088 0.619729C6.35308 1.26293 4.55616 2.41995 3.0761 3.99099C0.501053 6.73383 -0.385374 9.92026 0.208251 13.4431C0.665503 16.1564 2.13352 18.4002 4.36363 20.23C6.62181 22.0819 8.49494 24.1816 9.67016 26.7987C11.0459 29.8669 11.2665 33.0274 10.7491 36.2471C10.1876 39.7293 8.39066 42.6496 5.7394 45.1558C4.47193 46.3572 3.08011 47.4921 2.05731 48.8561C-0.0845506 51.7135 -0.485649 54.9332 0.537151 58.2527C1.48775 61.3431 3.54539 63.6571 6.64187 65.1727C9.34928 66.4998 12.2011 66.8953 15.1933 66.278C18.1333 65.6717 20.5159 64.2412 22.377 62.0565C23.8971 60.2711 24.7555 58.2232 24.9279 55.9978C25.0964 53.8391 24.6993 51.8836 23.7808 50.1203C24.3744 48.5715 25.2007 46.7269 26.0029 45.9913C26.8332 45.2261 28.7785 44.2021 30.3307 43.4517C33.4112 44.9525 37.1093 45.2409 40.5307 44.0321C42.2754 43.4148 43.9921 43.363 45.6687 44.2502C47.8427 45.3998 49.3227 48.0613 48.1234 50.8448C46.8439 53.8132 46.9242 56.8407 48.3601 59.7757C51.1357 65.4499 58.2913 68.1041 64.6327 65.6274C67.8936 64.3558 70.1638 62.1267 71.4232 59.0771C72.2976 56.9331 72.4661 54.7004 71.8885 52.4639ZM25.4975 43.9803C24.5068 45.1152 22.5655 45.9395 20.8167 46.4903C20.7004 46.3868 20.584 46.287 20.4597 46.1872C19.3767 45.3074 18.2777 44.3944 17.4234 43.3334C15.0248 40.3503 13.8737 36.9606 13.986 33.2271C13.9218 33.2197 13.8536 33.2123 13.7894 33.2012C14.0903 31.5303 14.2868 29.8373 14.72 28.196C15.1893 26.4291 16.168 24.8396 17.3271 23.3683C17.997 22.5181 18.6427 21.5127 20.1067 21.8491C20.4236 21.9193 20.7365 21.9969 21.0493 22.0819C23.9693 22.8841 25.6098 26.0262 24.6271 28.6877C24.1498 29.9815 23.7367 31.3455 23.6404 32.6947C23.4599 35.201 24.206 37.5299 25.7422 39.6517C26.2155 40.306 26.7569 40.8937 27.3466 41.4297C26.9013 42.1801 26.2917 43.0673 25.4975 43.9803ZM32.0996 22.422C30.6476 22.8767 29.1956 23.1798 27.7035 22.7732C24.5268 21.9082 22.8583 18.6183 24.0896 15.7534C24.9039 13.8608 25.1887 11.9201 24.8678 9.96093C28.241 9.65042 33.6237 9.16986 36.1106 9.04788C38.4329 8.93698 43.6993 9.41384 47.3975 9.79828C47.0846 11.6909 47.2731 13.6723 48.0432 15.5723C48.5967 16.9363 49.435 18.0933 50.4378 19.1432C50.0006 19.8455 49.435 20.6551 48.7091 21.4868C47.6381 22.7177 45.4441 23.5827 43.591 24.1298C43.3985 23.9968 43.214 23.8637 43.0094 23.738C39.6121 21.6679 35.9541 21.2206 32.0996 22.422ZM58.0145 36.1215C57.469 39.3005 55.9729 42.047 53.6626 44.4276C53.4741 44.6235 53.0971 44.7788 52.8123 44.7677C48.8655 44.6272 46.2985 40.9233 47.61 37.8293C48.5887 35.5152 48.8976 33.1346 48.2398 30.669C47.947 29.5786 47.5298 28.5694 46.9763 27.6526C47.5739 26.0964 48.4042 24.2407 49.2064 23.4977C49.9123 22.8471 51.4285 22.008 52.8243 21.3094C54.6694 22.9432 56.1013 24.8617 57.0278 27.0982C58.2391 30.0295 58.544 33.0274 58.0145 36.1215Z" fill="#D8E8E5"/>
<path d="M80.6362 21.7197V6.51208H81.8636V13.5503H92.4245V6.51208H93.6519V21.7197H92.4245V14.5928H81.8636V21.7197H80.6362Z" fill="#1D1D1B"/>
<path d="M98.7178 21.7197V6.51208H99.9451V21.7197H98.7178Z" fill="#1D1D1B"/>
<path d="M105.011 21.7197V6.51208H106.166L112.789 15.5058L119.411 6.51208H120.566V21.7197H119.338V8.51192L112.809 17.2654H112.712L106.182 8.51192V21.7197H105.011Z" fill="#1D1D1B"/>
<path d="M125.471 21.7197V6.51208H131.46C133.297 6.51208 134.781 6.9298 135.904 7.76152C137.027 8.59325 137.588 9.74288 137.588 11.203C137.588 12.7371 136.971 13.9311 135.739 14.7776C134.504 15.6241 132.976 16.0492 131.155 16.0492H126.699V21.7197H125.471ZM126.699 15.0068H131.223C132.763 15.0068 134.003 14.663 134.949 13.9754C135.892 13.2879 136.365 12.3711 136.365 11.2289C136.365 10.0571 135.912 9.15143 135.009 8.51192C134.107 7.87612 132.892 7.55452 131.367 7.55452H126.699V15.0068Z" fill="#1D1D1B"/>
<path d="M141.383 21.7197V6.51208H142.61V21.7197H141.383Z" fill="#1D1D1B"/>
<path d="M152.253 21.7197V7.55452H146.501V6.51208H159.232V7.55452H153.48V21.7197H152.253Z" fill="#1D1D1B"/>
<path d="M162.954 21.7197V6.51208H174.694V7.55452H164.181V13.5282H173.635V14.5706H164.181V20.6736H174.814V21.716L162.954 21.7197Z" fill="#1D1D1B"/>
<path d="M178.745 21.7197V6.51208H185.676C187.686 6.51208 189.234 7.01112 190.321 8.01289C191.155 8.78177 191.568 9.73549 191.568 10.8814C191.568 12.1124 191.127 13.0957 190.249 13.835C189.37 14.5743 188.199 15.0363 186.735 15.2249L192.182 21.7197H190.626L185.367 15.4208H179.968V21.7197H178.745ZM179.972 14.3968H185.536C186.952 14.3968 188.107 14.0826 189.001 13.4505C189.896 12.8221 190.345 11.9608 190.345 10.8777C190.345 9.85008 189.928 9.03683 189.093 8.44539C188.259 7.85024 187.096 7.55452 185.604 7.55452H179.968V14.3968H179.972Z" fill="#1D1D1B"/>
<path d="M200.364 21.7197V7.55452H194.612V6.51208H207.343V7.55452H201.587V21.7197H200.364Z" fill="#1D1D1B"/>
<path d="M224.595 19.6569C223.038 21.2058 221.041 21.9821 218.606 21.9821C216.172 21.9821 214.182 21.2095 212.642 19.668C211.102 18.1265 210.332 16.2746 210.332 14.1158C210.332 11.9718 211.11 10.1272 212.666 8.57465C214.222 7.02579 216.216 6.24951 218.654 6.24951C221.093 6.24951 223.078 7.02209 224.619 8.56356C226.159 10.105 226.929 11.957 226.929 14.1158C226.929 16.2598 226.151 18.1044 224.595 19.6569ZM213.621 18.9583C214.964 20.2927 216.641 20.9581 218.654 20.9581C220.664 20.9581 222.336 20.3001 223.664 18.9805C224.992 17.6645 225.658 16.0417 225.658 14.1158C225.658 12.2195 224.988 10.6041 223.64 9.2696C222.296 7.93884 220.62 7.26976 218.606 7.26976C216.593 7.26976 214.924 7.92775 213.596 9.24742C212.269 10.5671 211.603 12.1862 211.603 14.1158C211.607 16.0121 212.277 17.6275 213.621 18.9583Z" fill="#1D1D1B"/>
<path d="M231.101 21.7197V6.51208H238.032C240.041 6.51208 241.589 7.01112 242.676 8.01289C243.511 8.78177 243.924 9.73549 243.924 10.8814C243.924 12.1124 243.482 13.0957 242.604 13.835C241.726 14.5743 240.554 15.0363 239.09 15.2249L244.537 21.7197H242.981L237.723 15.4208H232.324V21.7197H231.101ZM232.328 14.3968H237.891C239.307 14.3968 240.462 14.0826 241.357 13.4505C242.251 12.8221 242.7 11.9608 242.7 10.8777C242.7 9.85008 242.283 9.03683 241.449 8.44539C240.615 7.85024 239.451 7.55452 237.959 7.55452H232.324V14.3968H232.328Z" fill="#1D1D1B"/>
<path d="M255.712 21.9784C253.181 21.9784 251.167 21.2243 249.667 19.7198C248.167 18.2153 247.417 16.3448 247.417 14.1158C247.417 11.9866 248.179 10.142 249.703 8.58574C251.227 7.02949 253.185 6.24951 255.571 6.24951C256.843 6.24951 257.95 6.41586 258.884 6.74855C259.819 7.08124 260.725 7.58027 261.608 8.24935L260.806 9.09586C259.298 7.87969 257.529 7.26976 255.503 7.26976C253.538 7.26976 251.913 7.93514 250.622 9.2696C249.334 10.6041 248.688 12.2158 248.688 14.1158C248.688 16.1304 249.326 17.7754 250.598 19.0581C251.869 20.3408 253.59 20.9803 255.76 20.9803C256.751 20.9803 257.713 20.8176 258.648 20.4923C259.582 20.1671 260.372 19.7493 261.018 19.2429V14.8773H255.503V13.8348H262.197V19.7013C261.379 20.3667 260.409 20.9138 259.285 21.3426C258.158 21.7677 256.967 21.9784 255.712 21.9784Z" fill="#1D1D1B"/>
<path d="M88.2049 45.4626C85.6739 45.4626 83.6604 44.7085 82.1603 43.204C80.6602 41.6995 79.9102 39.8291 79.9102 37.6C79.9102 35.4708 80.6722 33.6262 82.1964 32.07C83.7206 30.5137 85.678 29.7338 88.0645 29.7338C89.336 29.7338 90.443 29.9001 91.3776 30.2328C92.3121 30.5655 93.2186 31.0645 94.101 31.7336L93.2988 32.5801C91.7907 31.3639 90.0218 30.754 87.9963 30.754C86.0309 30.754 84.4065 31.4194 83.1149 32.7538C81.8274 34.0883 81.1816 35.7 81.1816 37.6C81.1816 39.6147 81.8194 41.2596 83.0909 42.5423C84.3623 43.825 86.0831 44.4645 88.253 44.4645C89.2437 44.4645 90.2063 44.3019 91.1409 43.9766C92.0755 43.6513 92.8656 43.2336 93.5114 42.7272V38.3615H87.9963V37.3191H94.6906V43.1855C93.8724 43.8509 92.9017 44.398 91.7787 44.8268C90.6516 45.2482 89.4603 45.4626 88.2049 45.4626Z" fill="#1D1D1B"/>
<path d="M99.1191 45.2002V29.9926H106.05C108.06 29.9926 109.608 30.4916 110.695 31.4934C111.529 32.2622 111.942 33.2159 111.942 34.3619C111.942 35.5928 111.501 36.5761 110.623 37.3154C109.744 38.0547 108.573 38.5168 107.109 38.7053L112.556 45.2002H111L105.741 38.9013H100.342V45.2002H99.1191ZM100.346 37.881H105.91C107.326 37.881 108.481 37.5668 109.375 36.9347C110.27 36.3063 110.719 35.445 110.719 34.3619C110.719 33.3342 110.302 32.521 109.467 31.9296C108.633 31.3344 107.47 31.0387 105.978 31.0387H100.342L100.346 37.881Z" fill="#1D1D1B"/>
<path d="M129.691 43.1376C128.135 44.6865 126.137 45.4628 123.702 45.4628C121.268 45.4628 119.278 44.6902 117.738 43.1487C116.198 41.6073 115.428 39.7553 115.428 37.5965C115.428 35.4525 116.206 33.6079 117.762 32.0554C119.318 30.5065 121.312 29.7302 123.751 29.7302C126.189 29.7302 128.175 30.5028 129.715 32.0443C131.255 33.5857 132.025 35.4377 132.025 37.5965C132.025 39.7405 131.247 41.5888 129.691 43.1376ZM118.721 42.4427C120.064 43.7771 121.741 44.4425 123.755 44.4425C125.764 44.4425 127.437 43.7845 128.764 42.4649C130.092 41.1489 130.758 39.5261 130.758 37.6002C130.758 35.7039 130.088 34.0885 128.74 32.754C127.396 31.4233 125.72 30.7542 123.706 30.7542C121.693 30.7542 120.024 31.4122 118.697 32.7318C117.369 34.0515 116.703 35.6706 116.703 37.6002C116.703 39.4965 117.377 41.1082 118.721 42.4427Z" fill="#1D1D1B"/>
<path d="M142.702 45.4405C140.676 45.4405 139.04 44.8675 137.801 43.7253C136.557 42.5831 135.939 40.9677 135.939 38.8791V29.9926H137.167V38.7682C137.167 40.55 137.66 41.9362 138.651 42.9268C139.642 43.9175 141.009 44.4166 142.754 44.4166C144.467 44.4166 145.81 43.9434 146.785 42.9934C147.76 42.0434 148.245 40.6719 148.245 38.8754V29.9889H149.473V38.7423C149.473 40.8716 148.859 42.5202 147.635 43.6846C146.404 44.8564 144.764 45.4405 142.702 45.4405Z" fill="#1D1D1B"/>
<path d="M154.114 45.2002V29.9926H160.102C161.939 29.9926 163.423 30.4103 164.546 31.242C165.669 32.0737 166.231 33.2233 166.231 34.6835C166.231 36.2176 165.613 37.4115 164.382 38.258C163.147 39.1046 161.618 39.5297 159.797 39.5297H155.341V45.2002H154.114ZM155.337 38.4872H159.862C161.402 38.4872 162.641 38.1435 163.588 37.4559C164.53 36.7683 165.004 35.8516 165.004 34.7094C165.004 33.5375 164.55 32.6319 163.648 31.9924C162.745 31.3566 161.53 31.035 160.006 31.035H155.337V38.4872Z" fill="#1D1D1B"/>
<path d="M83.6246 60.0714C82.9468 60.0714 82.3772 59.8496 81.916 59.4097C81.4547 58.9661 81.2261 58.4301 81.2261 57.8017C81.2261 57.1769 81.4587 56.6446 81.924 56.2011C82.3893 55.7575 82.9548 55.532 83.6246 55.532C84.3546 55.532 84.9804 55.8018 85.4978 56.3378L85.1849 56.6373C84.6795 56.1604 84.1581 55.9238 83.6166 55.9238C83.0952 55.9238 82.646 56.1086 82.2729 56.4783C81.8999 56.848 81.7154 57.2878 81.7154 57.8054C81.7154 58.3266 81.9039 58.7702 82.277 59.1361C82.65 59.5021 83.1112 59.6832 83.6527 59.6832C84.2143 59.6832 84.7317 59.4355 85.213 58.9439L85.5459 59.2174C84.9964 59.783 84.3546 60.0714 83.6246 60.0714Z" fill="black"/>
<path d="M86.8174 59.968V55.632H87.2706V57.2991H88.6745C89.1959 57.2991 89.6291 57.4063 89.966 57.617C90.3029 57.8314 90.4714 58.1493 90.4714 58.5744C90.4714 58.9958 90.315 59.3322 90.0021 59.5873C89.6892 59.8423 89.2721 59.9717 88.7547 59.9717L86.8174 59.968ZM87.2666 59.5947H88.6785C89.0796 59.5947 89.3964 59.5059 89.6291 59.3322C89.8617 59.1548 89.978 58.9108 89.978 58.5929C89.978 58.3046 89.8577 58.0791 89.6171 57.9164C89.3764 57.7538 89.0515 57.6725 88.6384 57.6725H87.2626V59.5947H87.2666ZM91.41 59.968V55.632H91.8632V59.968H91.41Z" fill="black"/>
<path d="M93.5796 61.3283V55.6319H94.0328V56.6004C94.5422 55.887 95.188 55.5284 95.9701 55.5284C96.5718 55.5284 97.1052 55.7355 97.5665 56.1532C98.0278 56.5709 98.2564 57.118 98.2564 57.7981C98.2564 58.4746 98.0237 59.018 97.5665 59.4394C97.1052 59.8571 96.5718 60.0678 95.9701 60.0678C95.1719 60.0678 94.5262 59.7203 94.0328 59.0291V61.3246L93.5796 61.3283ZM95.922 59.6723C96.4514 59.6723 96.8926 59.5022 97.2416 59.1659C97.5906 58.8295 97.767 58.3748 97.767 57.8018C97.767 57.2473 97.5866 56.7964 97.2256 56.4489C96.8646 56.1051 96.4314 55.9314 95.922 55.9314C95.4126 55.9314 94.9634 56.1088 94.5783 56.4637C94.1933 56.8185 94.0007 57.2658 94.0007 57.8129C94.0007 58.3526 94.1933 58.7962 94.5783 59.1474C94.9634 59.4948 95.4086 59.6723 95.922 59.6723Z" fill="black"/>
<path d="M99.6646 59.968V55.632H100.118V57.2991H101.522C102.043 57.2991 102.476 57.4063 102.813 57.617C103.15 57.8314 103.319 58.1493 103.319 58.5744C103.319 58.9958 103.162 59.3322 102.849 59.5873C102.536 59.8423 102.119 59.9717 101.602 59.9717L99.6646 59.968ZM100.118 59.5947H101.53C101.931 59.5947 102.248 59.5059 102.48 59.3322C102.713 59.1548 102.829 58.9108 102.829 58.5929C102.829 58.3046 102.709 58.0791 102.468 57.9164C102.228 57.7538 101.903 57.6725 101.49 57.6725H100.114V59.5947H100.118Z" fill="black"/>
<path d="M106.531 60.0715C105.898 60.0715 105.356 59.8571 104.903 59.432C104.45 59.0069 104.225 58.4598 104.225 57.7907C104.225 57.1549 104.438 56.6189 104.867 56.1827C105.296 55.7465 105.825 55.5284 106.459 55.5284C107.105 55.5284 107.626 55.7428 108.023 56.1753C108.421 56.6078 108.617 57.1475 108.617 57.7981C108.617 57.8647 108.613 57.9238 108.609 57.9682H104.706C104.751 58.4894 104.947 58.9034 105.3 59.2139C105.653 59.5244 106.07 59.676 106.551 59.676C107.165 59.676 107.707 59.4505 108.168 58.9958L108.481 59.2509C107.931 59.798 107.281 60.0715 106.531 60.0715ZM104.702 57.5985H108.124C108.088 57.1217 107.923 56.7224 107.634 56.4008C107.346 56.0792 106.945 55.9166 106.435 55.9166C105.974 55.9166 105.581 56.0755 105.256 56.3971C104.931 56.715 104.747 57.1143 104.702 57.5985Z" fill="black"/>
<path d="M111.974 61.1915V59.5946H112.592C113.053 58.896 113.282 57.8831 113.282 56.5524V55.6356H116.438V59.5983H117.196L117.104 61.1952H116.735V59.9717H112.443L112.351 61.1952H111.974V61.1915ZM113.089 59.5946H115.985V56.0053H113.715V56.7889C113.715 57.3545 113.659 57.8905 113.542 58.3969C113.43 58.8997 113.278 59.2989 113.089 59.5946Z" fill="black"/>
<path d="M118.023 60.0382C117.851 60.0382 117.678 60.016 117.506 59.9717L117.59 59.5872C117.743 59.6279 117.863 59.6464 117.951 59.6464C118.075 59.6464 118.176 59.6353 118.252 59.6094C118.328 59.5835 118.412 59.5318 118.505 59.4505C118.597 59.3728 118.669 59.2472 118.725 59.0771C118.781 58.9071 118.833 58.6853 118.886 58.4154C118.938 58.1456 118.978 57.7944 119.002 57.3693C119.026 56.9442 119.038 56.4415 119.038 55.8648V55.6356H122.239V59.9717H121.786V56.009H119.471V56.1273C119.471 56.8296 119.447 57.4248 119.399 57.9127C119.351 58.4006 119.287 58.7814 119.215 59.0549C119.142 59.3285 119.038 59.5429 118.902 59.6944C118.765 59.846 118.637 59.9384 118.509 59.9791C118.384 60.016 118.22 60.0382 118.023 60.0382Z" fill="black"/>
<path d="M123.578 59.9679L125.062 58.2416C124.669 58.1751 124.344 58.0235 124.088 57.7907C123.831 57.5578 123.702 57.2694 123.702 56.922C123.702 56.5375 123.855 56.2233 124.164 55.9867C124.473 55.7502 124.894 55.6282 125.427 55.6282H127.529V59.9642H127.076V58.2971H125.527L124.124 59.9642H123.578V59.9679ZM125.515 57.9274H127.084V56.0052H125.495C125.09 56.0052 124.769 56.0902 124.541 56.2603C124.312 56.4303 124.196 56.6595 124.196 56.9478C124.196 57.2436 124.32 57.4801 124.565 57.6576C124.81 57.8387 125.126 57.9274 125.515 57.9274Z" fill="black"/>
<path d="M132.017 59.968V55.632H132.47V58.4118L135.386 55.632H135.988L133.93 57.5542L136.052 59.968H135.479L133.613 57.8499L132.47 58.9145V59.968H132.017Z" fill="black"/>
<path d="M140.962 59.3987C140.497 59.846 139.919 60.0715 139.233 60.0715C138.543 60.0715 137.97 59.8497 137.513 59.4024C137.055 58.9588 136.827 58.4228 136.827 57.7981C136.827 57.1808 137.059 56.6485 137.525 56.2012C137.99 55.7539 138.567 55.5284 139.253 55.5284C139.939 55.5284 140.517 55.7502 140.974 56.1975C141.431 56.6411 141.66 57.1771 141.66 57.7981C141.66 58.4192 141.427 58.9515 140.962 59.3987ZM139.253 59.6797C139.775 59.6797 140.228 59.4948 140.605 59.1252C140.982 58.7555 141.171 58.3156 141.171 57.7981C141.171 57.2769 140.982 56.8333 140.605 56.4674C140.228 56.1014 139.771 55.9203 139.233 55.9203C138.704 55.9203 138.251 56.1051 137.878 56.4674C137.501 56.8333 137.316 57.2769 137.316 57.7981C137.316 58.3193 137.505 58.7629 137.878 59.1289C138.251 59.4985 138.712 59.6797 139.253 59.6797Z" fill="black"/>
<path d="M145.129 60.0714C144.451 60.0714 143.882 59.8496 143.42 59.4097C142.959 58.9661 142.73 58.4301 142.73 57.8017C142.73 57.1769 142.963 56.6446 143.428 56.2011C143.894 55.7575 144.459 55.532 145.129 55.532C145.859 55.532 146.485 55.8018 147.002 56.3378L146.689 56.6373C146.184 56.1604 145.663 55.9238 145.121 55.9238C144.6 55.9238 144.15 56.1086 143.777 56.4783C143.404 56.848 143.22 57.2878 143.22 57.8054C143.22 58.3266 143.408 58.7702 143.781 59.1361C144.154 59.5021 144.616 59.6832 145.157 59.6832C145.719 59.6832 146.236 59.4355 146.717 58.9439L147.05 59.2174C146.501 59.783 145.859 60.0714 145.129 60.0714Z" fill="black"/>
<path d="M148.318 59.968V55.632H148.723L150.64 58.1234L152.557 55.632H152.963V59.968H152.509V56.3528L150.62 58.7519L148.747 56.3528V59.968H148.318Z" fill="black"/>
<path d="M156.669 60.0715C156.035 60.0715 155.493 59.8571 155.04 59.432C154.587 59.0069 154.362 58.4598 154.362 57.7907C154.362 57.1549 154.575 56.6189 155.004 56.1827C155.433 55.7465 155.963 55.5284 156.596 55.5284C157.242 55.5284 157.764 55.7428 158.161 56.1753C158.558 56.6078 158.754 57.1475 158.754 57.7981C158.754 57.8647 158.75 57.9238 158.746 57.9682H154.844C154.888 58.4894 155.084 58.9034 155.437 59.2139C155.79 59.5244 156.207 59.676 156.689 59.676C157.302 59.676 157.844 59.4505 158.305 58.9958L158.618 59.2509C158.068 59.798 157.419 60.0715 156.669 60.0715ZM154.844 57.5985H158.265C158.229 57.1217 158.064 56.7224 157.776 56.4008C157.487 56.0792 157.086 55.9166 156.576 55.9166C156.115 55.9166 155.722 56.0755 155.397 56.3971C155.068 56.715 154.884 57.1143 154.844 57.5985Z" fill="black"/>
<path d="M161.254 59.968V56.0053H159.493V55.632H163.468V56.0053H161.707V59.968H161.254Z" fill="black"/>
<path d="M164.603 59.968V55.632H165.056V59.4172L168.249 55.632H168.702V59.968H168.249V56.1827L165.056 59.968H164.603Z" fill="black"/>
<path d="M170.415 59.968V55.632H170.868V58.4118L173.784 55.632H174.385L172.328 57.5542L174.45 59.968H173.876L172.011 57.8499L170.868 58.9145V59.968H170.415Z" fill="black"/>
<path d="M175.544 59.968V55.632H175.998V59.4172L179.19 55.632H179.644V59.968H179.19V56.1827L175.998 59.968H175.544Z" fill="black"/>
<path d="M184.124 59.968V55.632H184.577V59.4172L187.77 55.632H188.223V59.968H187.77V56.1827L184.577 59.968H184.124Z" fill="black"/>
<path d="M194.853 60.0723C194.163 60.0723 193.598 59.8542 193.157 59.418C192.715 58.9818 192.491 58.4051 192.491 57.6917C192.491 57.4034 192.495 57.1631 192.503 56.9746C192.511 56.786 192.535 56.5679 192.567 56.324C192.599 56.08 192.655 55.8767 192.727 55.7066C192.8 55.5366 192.9 55.374 193.016 55.2076C193.132 55.0413 193.293 54.9045 193.485 54.7936C193.678 54.6827 193.907 54.5977 194.163 54.5348L196.839 53.9138L196.967 54.2872L194.384 54.9156C193.887 55.0339 193.53 55.2224 193.317 55.4812C193.104 55.7399 192.976 56.1244 192.924 56.6345C193.365 55.9543 194.047 55.6142 194.961 55.6142C195.583 55.6142 196.117 55.8323 196.558 56.2685C196.999 56.7047 197.224 57.2222 197.224 57.8248C197.224 58.4384 196.995 58.9633 196.542 59.4069C196.093 59.8505 195.527 60.0723 194.853 60.0723ZM194.869 59.6804C195.403 59.6804 195.852 59.503 196.205 59.1444C196.562 58.7859 196.738 58.3534 196.738 57.8433C196.738 57.3331 196.554 56.9006 196.189 56.5421C195.824 56.1835 195.375 56.0061 194.845 56.0061C194.312 56.0061 193.862 56.1835 193.51 56.5421C193.153 56.9006 192.976 57.3331 192.976 57.8433C192.976 58.3534 193.161 58.7859 193.526 59.1444C193.895 59.503 194.34 59.6804 194.869 59.6804Z" fill="black"/>
<path d="M198.624 59.968V55.632H199.077V57.2991H200.481C201.002 57.2991 201.435 57.4063 201.772 57.617C202.109 57.8314 202.278 58.1493 202.278 58.5744C202.278 58.9958 202.121 59.3322 201.808 59.5873C201.495 59.8423 201.078 59.9717 200.561 59.9717L198.624 59.968ZM199.077 59.5947H200.489C200.89 59.5947 201.207 59.5059 201.439 59.3322C201.672 59.1548 201.788 58.9108 201.788 58.5929C201.788 58.3046 201.668 58.0791 201.427 57.9164C201.187 57.7538 200.862 57.6725 200.449 57.6725H199.073V59.5947H199.077ZM203.22 59.968V55.632H203.673V59.968H203.22Z" fill="black"/>
<path d="M206.566 59.968V56.0053H204.805V55.632H208.78V56.0053H207.019V59.968H206.566Z" fill="black"/>
<path d="M213.729 59.3987C213.264 59.846 212.686 60.0715 212 60.0715C211.31 60.0715 210.737 59.8497 210.28 59.4024C209.822 58.9588 209.594 58.4228 209.594 57.7981C209.594 57.1808 209.826 56.6485 210.292 56.2012C210.757 55.7539 211.335 55.5284 212.02 55.5284C212.706 55.5284 213.284 55.7502 213.741 56.1975C214.198 56.6411 214.427 57.1771 214.427 57.7981C214.427 58.4192 214.194 58.9515 213.729 59.3987ZM212.02 59.6797C212.542 59.6797 212.995 59.4948 213.372 59.1252C213.749 58.7555 213.938 58.3156 213.938 57.7981C213.938 57.2769 213.749 56.8333 213.372 56.4674C212.995 56.1014 212.538 55.9203 212 55.9203C211.471 55.9203 211.018 56.1051 210.645 56.4674C210.268 56.8333 210.083 57.2769 210.083 57.7981C210.083 58.3193 210.272 58.7629 210.645 59.1289C211.018 59.4985 211.479 59.6797 212.02 59.6797Z" fill="black"/>
<path d="M215.818 59.968V55.632H217.968C218.43 55.632 218.799 55.7281 219.075 55.924C219.352 56.1199 219.492 56.3824 219.492 56.7114C219.492 57.1697 219.228 57.5024 218.698 57.7057C219.011 57.7797 219.268 57.9053 219.464 58.0902C219.661 58.2713 219.761 58.5042 219.761 58.7888C219.761 59.1474 219.609 59.432 219.3 59.6464C218.991 59.8608 218.582 59.968 218.073 59.968H215.818ZM216.272 57.5727H217.904C218.241 57.5727 218.514 57.4987 218.722 57.3546C218.927 57.2104 219.031 57.0034 219.031 56.7372C219.031 56.5154 218.935 56.338 218.746 56.2049C218.554 56.0718 218.285 56.0053 217.936 56.0053H216.276L216.272 57.5727ZM216.272 59.5947H218.016C218.409 59.5947 218.718 59.517 218.947 59.3618C219.176 59.2065 219.288 58.9958 219.288 58.7297C219.288 58.4746 219.168 58.275 218.931 58.1345C218.694 57.9941 218.349 57.9201 217.904 57.9201H216.272V59.5947Z" fill="black"/>
<path d="M224.984 59.3987C224.519 59.846 223.941 60.0715 223.255 60.0715C222.565 60.0715 221.992 59.8497 221.535 59.4024C221.077 58.9588 220.849 58.4228 220.849 57.7981C220.849 57.1808 221.081 56.6485 221.547 56.2012C222.012 55.7539 222.589 55.5284 223.275 55.5284C223.961 55.5284 224.539 55.7502 224.996 56.1975C225.453 56.6411 225.682 57.1771 225.682 57.7981C225.682 58.4192 225.449 58.9515 224.984 59.3987ZM223.275 59.6797C223.797 59.6797 224.25 59.4948 224.627 59.1252C225.004 58.7555 225.193 58.3156 225.193 57.7981C225.193 57.2769 225.004 56.8333 224.627 56.4674C224.25 56.1014 223.793 55.9203 223.255 55.9203C222.726 55.9203 222.273 56.1051 221.9 56.4674C221.523 56.8333 221.338 57.2769 221.338 57.7981C221.338 58.3193 221.527 58.7629 221.9 59.1289C222.273 59.4985 222.734 59.6797 223.275 59.6797Z" fill="black"/>
<path d="M227.073 59.968V55.632H227.526V59.4173L230.719 55.632H231.172V59.968H230.719V56.1828L227.526 59.968H227.073ZM229.945 54.6524C229.716 54.8372 229.444 54.9297 229.123 54.9297C228.802 54.9297 228.529 54.8372 228.301 54.6524C228.072 54.4676 227.932 54.2347 227.875 53.9501L228.252 53.8724C228.369 54.2865 228.658 54.4935 229.119 54.4935C229.58 54.4935 229.869 54.2865 229.985 53.8724L230.362 53.9501C230.314 54.231 230.17 54.4676 229.945 54.6524Z" fill="black"/>
<path d="M235.212 59.968L237.141 57.7575L235.288 55.632H235.85L237.438 57.4691L239.026 55.632H239.572L237.719 57.7501L239.648 59.968H239.087L237.426 58.0384L235.765 59.968H235.212Z" fill="black"/>
<path d="M240.911 59.968V55.632H241.364V59.4172L244.557 55.632H245.01V59.968H244.557V56.1827L241.364 59.968H240.911Z" fill="black"/>
<path d="M246.723 59.968V55.632H247.128L249.046 58.1234L250.963 55.632H251.368V59.968H250.915V56.3528L249.025 58.7519L247.152 56.3528V59.968H246.723Z" fill="black"/>
<path d="M253.089 59.968V55.632H253.542V59.4172L256.735 55.632H257.188V59.968H256.735V56.1827L253.542 59.968H253.089Z" fill="black"/>
<path d="M258.9 59.968V55.632H259.354V59.4172L262.546 55.632H263V59.968H262.546V56.1827L259.354 59.968H258.9Z" fill="black"/>
</svg>
