<svg width="25" height="25" viewBox="0 0 25 25" fill="none" xmlns="http://www.w3.org/2000/svg">
<path d="M6.25 2.08337L3.125 6.25004V20.8334C3.125 21.3859 3.34449 21.9158 3.73519 22.3065C4.12589 22.6972 4.6558 22.9167 5.20833 22.9167H19.7917C20.3442 22.9167 20.8741 22.6972 21.2648 22.3065C21.6555 21.9158 21.875 21.3859 21.875 20.8334V6.25004L18.75 2.08337H6.25Z" stroke="#AFBDD5" stroke-width="2" stroke-linecap="round" stroke-linejoin="round"/>
<path d="M3.125 6.25H21.875" stroke="#AFBDD5" stroke-width="2" stroke-linecap="round" stroke-linejoin="round"/>
<path d="M16.6668 10.4166C16.6668 11.5217 16.2278 12.5815 15.4464 13.3629C14.665 14.1443 13.6052 14.5833 12.5002 14.5833C11.3951 14.5833 10.3353 14.1443 9.55388 13.3629C8.77248 12.5815 8.3335 11.5217 8.3335 10.4166" stroke="#AFBDD5" stroke-width="2" stroke-linecap="round" stroke-linejoin="round"/>
</svg>
