<svg width="20" height="19" viewBox="0 0 20 19" fill="none" xmlns="http://www.w3.org/2000/svg">
<path d="M18.82 0.00139785C18.5985 0.0115504 18.3828 0.0759574 18.1884 0.157303C17.9959 0.238104 16.8877 0.732168 15.2513 1.46301C13.6149 2.19385 11.4877 3.14555 9.37907 4.08926C5.16177 5.97668 1.01753 7.83377 1.01753 7.83377L1.04774 7.8217C1.04774 7.8217 0.797615 7.90904 0.544022 8.09361C0.417226 8.18589 0.280814 8.30504 0.169121 8.47873C0.0574286 8.65243 -0.0242261 8.89859 0.00654565 9.15896C0.11463 10.0735 1.02198 10.3329 1.02198 10.3329L1.02553 10.3347L5.07482 11.7824C5.17806 12.1422 6.30298 16.0642 6.55044 16.8948C6.6871 17.354 6.81501 17.6189 6.94844 17.7996C7.0152 17.8901 7.08517 17.96 7.16254 18.0112C7.19328 18.0315 7.22561 18.0468 7.2576 18.0604C7.25828 18.0607 7.25869 18.0601 7.25937 18.0604C7.2633 18.0622 7.267 18.0624 7.27092 18.0641L7.26026 18.0613C7.26769 18.0645 7.27503 18.0697 7.28247 18.0725C7.29691 18.0777 7.30575 18.0776 7.32423 18.0817C7.78797 18.2509 8.17175 17.937 8.17175 17.937L8.18774 17.924L10.6752 15.5139L14.7121 18.8019L14.7627 18.826C15.4693 19.1537 16.1083 18.9709 16.4622 18.6701C16.8161 18.3693 16.9553 17.9815 16.9553 17.9815L16.9704 17.9407L19.9367 1.79059C20.0126 1.42928 20.0234 1.11696 19.9518 0.834747C19.8802 0.55253 19.7063 0.307201 19.4881 0.171223C19.2698 0.0352448 19.0415 -0.00875473 18.82 0.00139785ZM18.844 0.967452C18.934 0.9631 19.0007 0.973844 19.0217 0.98694C19.0427 1.00004 19.0521 0.998313 19.0723 1.07788C19.0925 1.15746 19.1034 1.32506 19.0483 1.58736L19.0465 1.59293L16.0971 17.6493C16.0901 17.6655 16.0286 17.814 15.8883 17.9333C15.7452 18.0549 15.5859 18.1499 15.1634 17.9648L10.749 14.3688L10.6246 14.2667L10.6219 14.2695L9.30178 13.2348L16.7207 4.11711C16.7777 4.04723 16.8142 3.96159 16.8256 3.87056C16.837 3.77953 16.8229 3.68699 16.785 3.60414C16.7471 3.52129 16.6871 3.45168 16.6122 3.40371C16.5372 3.35575 16.4506 3.33149 16.3627 3.33387C16.2769 3.3362 16.1934 3.36387 16.122 3.41368L5.38664 10.8897L1.33114 9.43922C1.33114 9.43922 0.928427 9.20513 0.909151 9.04203C0.908082 9.03299 0.903327 9.04117 0.924254 9.00862C0.94518 8.97608 0.997782 8.92113 1.06373 8.87313C1.19563 8.77714 1.34624 8.71909 1.34624 8.71909L1.36134 8.71352L1.37645 8.70702C1.37645 8.70702 5.52089 6.84984 9.73798 4.96252C11.8465 4.01886 13.9734 3.06785 15.6094 2.33719C17.2449 1.60672 18.4268 1.08093 18.5268 1.03891C18.6408 0.991254 18.754 0.971805 18.844 0.967452ZM13.9241 6.08633L8.2979 13.0009L8.29524 13.0037C8.28645 13.0147 8.27815 13.0262 8.27036 13.038C8.26144 13.0509 8.25313 13.0642 8.24549 13.0779C8.21388 13.134 8.19362 13.1962 8.18596 13.2607C8.18596 13.262 8.18596 13.2632 8.18596 13.2645L7.45304 16.7074C7.44086 16.6702 7.43233 16.6566 7.41928 16.6127V16.6118C7.18649 15.8304 6.12515 12.1316 5.97831 11.62L13.9241 6.08633ZM8.9331 14.134L9.94409 14.9265L8.4587 16.3649L8.9331 14.134Z" fill="#27221C"/>
</svg>
