<svg width="24" height="22" viewBox="0 0 24 22" fill="none" xmlns="http://www.w3.org/2000/svg">
<path d="M23.8878 17.3402C23.6812 16.5436 23.2454 15.8606 22.555 15.3304C21.9965 14.9015 21.51 14.4165 21.1355 13.841C20.5917 13.0066 20.3518 12.0939 20.3358 11.1311C20.3239 10.4372 20.3972 9.74565 20.6571 9.092C20.9543 8.34184 21.4008 7.66986 22.0378 7.10907C22.4457 6.74987 22.8908 6.41021 23.22 5.99603C23.9757 5.04672 24.165 3.98011 23.8465 2.83164C23.4226 1.30198 22.0139 0.235374 20.4132 0.0411124C19.5482 -0.06396 18.7032 0.0569962 17.9061 0.450407C17.1838 0.805943 16.624 1.32397 16.2481 1.92631C15.2072 2.15356 13.1307 2.57751 12.0005 2.5995C11.0595 2.61783 9.1736 2.31361 7.83546 2.0717C7.35565 1.19202 6.56796 0.565253 5.47106 0.208496C4.59008 -0.0773992 3.69177 -0.0602942 2.81478 0.20483C2.11106 0.417419 1.51396 0.799833 1.02216 1.31909C0.166495 2.22564 -0.128056 3.27881 0.0691995 4.44316C0.221139 5.33994 0.708947 6.08156 1.44999 6.68633C2.20036 7.29844 2.82278 7.99241 3.21329 8.85742C3.67044 9.8715 3.74375 10.9161 3.57181 11.9803C3.38522 13.1312 2.78812 14.0964 1.90714 14.9247C1.48597 15.3218 1.02349 15.6969 0.683623 16.1477C-0.0280953 17.0922 -0.161376 18.1563 0.17849 19.2535C0.494365 20.2749 1.17809 21.0397 2.20702 21.5406C3.10666 21.9793 4.05429 22.11 5.04856 21.906C6.02551 21.7056 6.8172 21.2328 7.43562 20.5107C7.94075 19.9206 8.22597 19.2437 8.28328 18.5082C8.33926 17.7947 8.20731 17.1484 7.9021 16.5656C8.09936 16.0537 8.37391 15.444 8.64048 15.2009C8.91637 14.948 9.56278 14.6095 10.0786 14.3615C11.1022 14.8575 12.331 14.9528 13.4679 14.5533C14.0477 14.3493 14.6181 14.3322 15.1752 14.6254C15.8976 15.0054 16.3894 15.8851 15.9909 16.8051C15.5657 17.7861 15.5924 18.7868 16.0695 19.7569C16.9918 21.6323 19.3696 22.5095 21.4767 21.6909C22.5603 21.2706 23.3147 20.5339 23.7332 19.5259C24.0237 18.8173 24.0797 18.0794 23.8878 17.3402ZM8.47254 14.5362C8.14334 14.9113 7.49826 15.1838 6.91716 15.3658C6.87851 15.3316 6.83985 15.2986 6.79854 15.2656C6.43868 14.9748 6.07349 14.6731 5.7896 14.3224C4.99259 13.3364 4.61007 12.2161 4.64739 10.9821C4.62606 10.9796 4.60341 10.9772 4.58208 10.9735C4.68204 10.4213 4.74735 9.86172 4.89129 9.31925C5.04723 8.73525 5.37244 8.20989 5.75762 7.72362C5.98019 7.44261 6.19478 7.11029 6.68125 7.22147C6.78654 7.24469 6.8905 7.27034 6.99446 7.29844C7.96474 7.56357 8.50986 8.60207 8.18332 9.48175C8.02472 9.90937 7.88744 10.3602 7.85545 10.8062C7.79548 11.6345 8.04338 12.4042 8.55384 13.1055C8.71111 13.3218 8.89104 13.516 9.08696 13.6932C8.93902 13.9412 8.73644 14.2344 8.47254 14.5362ZM10.6663 7.41085C10.1839 7.56112 9.70139 7.66131 9.20558 7.52691C8.15 7.24102 7.59556 6.15364 8.00473 5.20677C8.27529 4.58122 8.36992 3.93979 8.26329 3.29225C9.38418 3.18962 11.1728 3.03079 11.9991 2.99047C12.7708 2.95382 14.5208 3.11143 15.7497 3.23849C15.6457 3.86404 15.7083 4.51891 15.9642 5.1469C16.1482 5.59773 16.4267 5.98015 16.7599 6.32713C16.6147 6.55927 16.4267 6.82684 16.1855 7.10174C15.8296 7.50859 15.1006 7.79448 14.4848 7.9753C14.4209 7.93132 14.3595 7.88734 14.2916 7.8458C13.1627 7.1616 11.9472 7.01377 10.6663 7.41085ZM19.2776 11.9387C19.0963 12.9895 18.5992 13.8972 17.8315 14.6841C17.7689 14.7488 17.6436 14.8001 17.549 14.7965C16.2375 14.75 15.3845 13.5258 15.8203 12.5032C16.1455 11.7384 16.2481 10.9515 16.0296 10.1366C15.9323 9.7762 15.7936 9.44265 15.6097 9.13965C15.8083 8.62529 16.0842 8.01196 16.3508 7.76638C16.5853 7.55135 17.0891 7.27401 17.5529 7.04309C18.166 7.58312 18.6419 8.21722 18.9497 8.95639C19.3522 9.92525 19.4535 10.9161 19.2776 11.9387Z" fill="#D8E8E5"/>
</svg>
